<?xml version="1.0" standalone="no"?>
<!DOCTYPE svg PUBLIC "-//W3C//DTD SVG 20010904//EN"
 "http://www.w3.org/TR/2001/REC-SVG-20010904/DTD/svg10.dtd">
<svg version="1.0" xmlns="http://www.w3.org/2000/svg"
 width="1024.000000pt" height="1024.000000pt" viewBox="0 0 1024.000000 1024.000000"
 preserveAspectRatio="xMidYMid meet">
<metadata>
Created by potrace 1.16, written by Peter Selinger 2001-2019
</metadata>
<g transform="translate(0.000000,1024.000000) scale(0.100000,-0.100000)"
fill="#000000" stroke="none">
<path d="M4695 8370 c-125 -17 -320 -68 -415 -110 -25 -11 -85 -33 -135 -50
-98 -34 -227 -98 -232 -116 -2 -7 26 -35 63 -65 53 -42 64 -55 52 -63 -177
-137 -517 -418 -548 -453 l-40 -46 3 -601 3 -601 26 -65 c14 -36 36 -90 48
-120 40 -101 171 -345 220 -411 63 -84 310 -325 430 -420 116 -92 352 -275
440 -342 36 -28 128 -100 205 -162 77 -61 188 -148 247 -193 l107 -82 58 39
c32 21 202 135 378 251 176 117 338 228 359 246 59 50 120 137 180 254 56 111
77 168 96 263 10 51 14 57 36 57 32 0 74 -22 142 -73 l53 -40 35 16 c48 23
210 181 242 237 25 42 27 55 31 189 l3 144 34 47 c19 26 50 82 70 125 19 43
48 93 63 110 48 55 94 179 98 265 l4 75 -123 101 c-68 56 -186 147 -263 204
-193 141 -211 160 -236 242 -36 122 -122 202 -242 223 -27 5 -38 13 -41 29
-66 362 -91 439 -175 551 -78 103 -348 266 -549 331 l-106 34 -245 -1 c-175
-1 -284 -6 -376 -19z m672 -151 c142 -45 346 -160 449 -252 77 -69 152 -239
154 -346 l0 -24 -26 24 c-14 13 -45 53 -68 89 -52 78 -79 104 -128 124 -20 9
-137 32 -260 51 -123 19 -238 37 -255 40 -27 5 -33 10 -33 31 0 33 -21 73 -60
109 -28 26 -39 30 -105 33 -70 4 -78 2 -139 -32 -35 -20 -69 -36 -76 -36 -6 0
-41 -14 -77 -31 l-67 -31 -180 4 c-193 4 -199 5 -269 62 l-38 30 23 12 c46 24
315 114 398 133 119 28 235 38 462 40 195 1 199 1 295 -30z m-297 -249 c29
-29 25 -66 -9 -101 -39 -38 -97 -41 -130 -5 -34 37 -25 75 24 103 50 28 89 29
115 3z m-795 -110 c81 -13 442 -12 485 0 22 6 36 6 38 0 2 -5 13 -24 25 -42
49 -71 142 -106 228 -84 42 11 63 22 115 61 8 6 98 -4 261 -29 l248 -38 38
-36 c21 -20 64 -70 95 -111 31 -41 69 -88 85 -106 15 -18 27 -36 27 -40 0 -4
-65 -6 -144 -3 l-144 5 -69 61 c-185 164 -208 181 -216 173 -9 -9 29 -68 123
-196 21 -27 40 -63 42 -78 5 -24 1 -30 -29 -42 -19 -8 -46 -25 -58 -37 -13
-13 -25 -21 -27 -18 -5 8 -102 -63 -135 -100 l-33 -35 0 68 0 69 -92 99 c-50
54 -102 115 -116 134 l-26 36 -485 -3 c-479 -3 -487 -3 -542 -26 -128 -52
-210 -135 -231 -235 -10 -48 -9 -58 11 -99 13 -28 38 -57 63 -74 35 -25 53
-30 119 -33 65 -2 86 1 123 19 107 51 115 224 11 231 -46 4 -74 -10 -81 -38
-5 -18 -2 -30 10 -38 36 -26 0 -75 -55 -75 -31 0 -75 32 -84 60 -15 47 75 137
170 171 46 16 82 19 240 19 l186 0 -7 -22 c-13 -45 -31 -68 -154 -204 -69 -75
-135 -151 -148 -168 -13 -18 -79 -64 -160 -112 -126 -74 -137 -84 -143 -115
-4 -19 -19 -80 -35 -137 -21 -81 -34 -110 -59 -135 -40 -41 -61 -127 -45 -185
20 -75 117 -132 199 -117 93 17 136 75 136 182 0 62 -3 75 -25 98 -14 15 -41
35 -61 46 l-37 18 19 83 c10 46 19 86 19 90 0 4 53 42 118 85 104 69 133 95
253 228 258 287 281 316 275 347 l-5 28 168 0 169 0 101 -98 102 -98 -3 -103
-3 -103 -45 -18 -44 -17 -47 61 -47 61 -134 -3 -133 -4 -100 -114 c-55 -63
-148 -162 -207 -220 l-108 -106 0 -208 0 -208 -57 -49 c-32 -27 -88 -73 -125
-102 l-68 -53 0 -234 c0 -129 -4 -234 -8 -234 -13 0 -88 81 -147 160 -57 76
-179 314 -231 450 l-29 75 -3 554 -3 554 33 35 c18 19 142 122 275 228 132
106 244 198 248 204 5 8 19 10 39 5 17 -3 58 -10 91 -15z m1646 -549 l266 -6
35 -27 c47 -36 79 -88 85 -141 3 -23 16 -56 29 -73 13 -18 103 -93 201 -168
219 -167 303 -236 303 -247 0 -5 -30 -9 -67 -9 -40 0 -95 -9 -131 -20 -98 -31
-116 -28 -141 23 -12 23 -36 61 -54 84 -62 80 -148 184 -188 225 -21 23 -39
49 -39 58 0 29 -43 84 -80 102 -49 25 -140 24 -190 -2 -22 -11 -50 -20 -62
-20 -13 0 -70 25 -127 55 -57 30 -109 55 -114 55 -20 0 -77 -51 -77 -69 0 -39
84 -93 195 -125 33 -10 65 -19 72 -21 6 -2 9 -12 6 -23 -2 -10 2 -36 11 -56
12 -29 27 -42 68 -61 69 -32 125 -32 189 1 l51 25 43 -40 c28 -25 63 -46 97
-56 66 -19 116 -62 171 -145 38 -57 50 -68 122 -105 59 -29 81 -46 83 -62 2
-12 26 -39 58 -63 l54 -41 -43 -81 c-23 -44 -46 -89 -51 -99 -8 -14 -30 -18
-135 -24 -171 -8 -247 -28 -403 -101 l-133 -63 -47 50 c-64 67 -94 121 -109
195 -12 57 -11 68 11 140 28 97 26 99 -108 108 -122 8 -215 22 -316 47 -157
40 -208 81 -285 234 -24 48 -50 89 -57 92 -15 6 -104 -45 -104 -59 0 -6 24
-56 53 -111 62 -119 119 -182 202 -221 73 -35 216 -72 333 -87 145 -18 132
-10 132 -83 0 -81 29 -176 76 -246 48 -71 180 -200 204 -200 11 0 82 31 159
70 169 84 223 100 365 107 l109 6 -5 -104 c-2 -57 -9 -113 -15 -124 -6 -11
-41 -50 -78 -86 l-66 -67 -71 37 c-62 32 -79 36 -142 35 -49 0 -85 -7 -116
-21 -44 -19 -46 -21 -42 -59 8 -87 -65 -281 -161 -426 -47 -71 -100 -128 -119
-128 -1 0 -2 131 0 292 l3 292 -274 275 c-150 152 -290 297 -311 324 -22 26
-47 47 -58 47 -29 0 -68 -30 -68 -52 0 -12 113 -134 305 -328 l305 -308 0
-305 0 -305 -275 -181 c-151 -100 -278 -181 -283 -181 -5 0 -15 8 -23 18 -12
14 -13 69 -9 321 l5 303 -31 27 c-27 23 -371 285 -397 303 -6 3 8 23 31 45 64
61 69 151 12 217 -40 45 -79 60 -141 54 -60 -6 -95 -30 -123 -83 -31 -60 -28
-132 7 -178 15 -20 41 -44 57 -52 19 -10 30 -24 32 -42 2 -20 17 -38 52 -63
27 -19 120 -88 207 -152 147 -109 159 -120 160 -150 3 -66 -3 -433 -7 -437 -2
-2 -20 12 -41 30 -32 29 -258 207 -447 353 -28 22 -109 85 -180 140 -70 56
-146 114 -167 130 l-39 30 0 271 0 271 119 98 118 98 6 96 c4 53 7 147 7 209
l0 112 54 75 c30 41 92 117 137 167 46 51 100 110 119 131 33 37 38 39 113 45
78 6 79 6 103 -23 13 -16 23 -33 23 -39 0 -5 -21 -23 -47 -40 -36 -23 -48 -37
-50 -60 -6 -47 20 -58 81 -34 98 39 263 129 342 188 44 33 104 72 133 86 36
18 52 32 52 46 0 13 7 19 21 19 24 0 49 22 49 44 0 8 8 17 18 20 9 3 28 22 41
42 22 32 28 35 55 29 17 -4 151 -10 297 -14z m169 -315 c0 -31 -53 -76 -89
-76 -35 0 -58 18 -66 52 -7 29 -4 30 90 41 64 8 65 8 65 -17z m-2186 -498 c19
-26 20 -49 5 -100 -9 -33 -14 -38 -39 -38 -63 0 -88 65 -50 128 24 39 61 43
84 10z m2986 6 c0 -3 -5 -14 -11 -25 -8 -16 -13 -18 -24 -9 -18 15 -8 40 16
40 10 0 19 -3 19 -6z m-2241 -680 c25 -5 31 -11 31 -33 0 -15 -6 -36 -14 -46
-12 -17 -18 -18 -40 -7 -22 10 -26 18 -26 52 0 43 1 43 49 34z"/>
<path d="M4853 6743 l-32 -4 -3 -327 -3 -326 247 -258 c136 -142 261 -270 279
-285 l31 -27 -7 -193 -7 -193 22 -8 c13 -5 39 -6 59 -3 l36 6 3 223 2 223 -62
57 c-130 118 -245 232 -374 371 l-134 144 0 304 c0 236 -3 303 -12 301 -7 0
-28 -3 -45 -5z"/>
<path d="M1643 3930 c-86 -23 -142 -54 -205 -113 -86 -83 -138 -202 -138 -316
1 -187 91 -334 250 -410 65 -31 86 -36 168 -39 69 -3 111 0 158 13 74 20 171
79 197 119 21 32 19 36 -54 97 l-48 40 -43 -28 c-61 -41 -92 -53 -157 -59
-117 -12 -223 58 -255 169 -42 146 4 271 124 332 95 48 178 42 283 -21 l57
-35 40 31 c22 17 49 44 60 60 l21 29 -38 35 c-52 48 -125 83 -208 101 -90 19
-124 18 -212 -5z"/>
<path d="M7441 3939 c-131 -26 -266 -130 -327 -254 -104 -211 -10 -486 202
-586 191 -91 384 -63 536 79 63 59 92 111 118 213 27 104 22 167 -21 279 -23
61 -43 93 -79 129 -74 74 -154 118 -246 136 -87 16 -117 17 -183 4z m187 -185
c50 -20 98 -69 130 -129 38 -73 38 -179 0 -251 -49 -94 -122 -137 -233 -137
-111 0 -185 43 -232 136 -48 96 -40 212 22 292 66 87 216 130 313 89z"/>
<path d="M4138 3933 l-28 -4 -2 -147 c-1 -81 -3 -276 -3 -433 l0 -286 89 -7
c49 -3 194 -6 323 -6 l233 0 0 54 c0 29 3 68 6 85 l7 31 -237 0 -236 0 0 95 0
95 210 0 210 0 0 85 0 85 -216 0 c-193 0 -215 2 -210 16 3 9 6 51 6 95 l0 79
230 -7 230 -6 0 85 0 85 -112 6 c-119 7 -454 7 -500 0z"/>
<path d="M4979 3769 c-1 -201 2 -714 4 -715 1 0 44 2 95 4 l92 4 0 134 0 134
85 0 c47 0 85 -3 85 -7 0 -9 143 -241 160 -260 12 -15 177 -18 199 -4 10 6 -9
42 -83 156 l-95 147 47 31 c64 43 109 113 117 182 20 153 -51 289 -173 336
-51 19 -82 22 -294 27 l-238 5 -1 -174z m414 -15 c21 -4 51 -19 67 -34 24 -23
30 -36 30 -72 0 -59 -37 -113 -88 -127 -41 -12 -137 -14 -194 -5 l-38 7 0 118
0 119 93 0 c50 0 109 -3 130 -6z"/>
<path d="M5998 3932 l-88 -3 0 -440 0 -439 308 2 307 3 3 88 3 87 -210 0 -211
0 -2 352 c-2 225 -7 352 -13 353 -5 0 -49 -1 -97 -3z"/>
<path d="M8780 3653 l0 -286 -81 119 c-45 65 -111 160 -148 209 -38 50 -92
123 -121 163 l-53 72 -104 0 -104 0 6 -432 7 -433 91 0 92 0 -4 283 c-2 160 0
282 5 282 5 -1 86 -107 179 -237 94 -130 187 -258 208 -285 l37 -48 85 0 85 0
0 440 0 440 -90 0 -90 0 0 -287z"/>
<path d="M2190 3914 c0 -8 13 -34 28 -57 16 -23 75 -118 132 -211 56 -93 113
-184 126 -204 23 -33 24 -42 24 -208 l0 -174 99 0 99 0 4 173 3 172 149 240
c82 132 156 250 164 263 l14 22 -108 0 -109 0 -92 -158 c-51 -86 -97 -163
-102 -171 -14 -21 -46 20 -146 187 l-86 142 -99 0 c-84 0 -100 -2 -100 -16z"/>
<path d="M3160 3490 l0 -442 268 4 c250 4 271 5 325 27 117 46 165 119 153
234 -8 77 -43 132 -108 167 l-47 26 36 28 c91 73 98 244 12 323 -13 12 -47 32
-74 45 -47 22 -64 23 -307 26 l-258 4 0 -442z m442 260 c42 -12 58 -34 58 -80
0 -73 -38 -90 -197 -90 l-103 0 0 90 0 90 103 0 c56 0 119 -5 139 -10z m23
-341 c53 -14 85 -45 85 -81 0 -76 -51 -98 -223 -98 l-122 0 -3 95 -2 95 112 0
c62 0 131 -5 153 -11z"/>
<path d="M6690 3495 l0 -435 95 0 95 0 0 429 0 428 -46 7 c-26 3 -69 6 -95 6
l-49 0 0 -435z"/>
<path d="M4125 2635 c-60 -21 -85 -56 -85 -117 0 -70 39 -109 127 -128 36 -7
70 -21 80 -32 17 -19 17 -21 -6 -39 -32 -26 -77 -24 -130 7 l-45 25 -25 -25
c-25 -25 -25 -25 -5 -47 31 -36 93 -59 159 -59 95 0 157 50 157 126 0 66 -40
98 -172 136 -47 14 -62 37 -40 63 16 20 60 19 111 -2 41 -16 42 -16 60 8 28
36 23 48 -23 69 -63 27 -117 32 -163 15z"/>
<path d="M6981 2639 c-103 -19 -166 -102 -165 -214 1 -70 18 -109 68 -152 47
-42 97 -57 168 -50 133 12 217 126 188 255 -26 116 -135 184 -259 161z m105
-95 c47 -22 67 -65 62 -126 -14 -144 -200 -160 -237 -20 -15 55 3 109 48 139
40 27 80 29 127 7z"/>
<path d="M8071 2640 c-58 -9 -111 -63 -111 -113 0 -60 35 -97 125 -132 82 -31
99 -51 75 -80 -19 -23 -67 -18 -122 12 l-50 27 -25 -28 c-29 -34 -25 -40 51
-80 124 -66 264 -3 253 113 -6 58 -29 78 -123 110 -42 14 -82 33 -87 43 -27
42 55 64 128 33 34 -13 36 -13 51 10 20 31 13 50 -23 68 -37 19 -88 25 -142
17z"/>
<path d="M2000 2630 c0 -5 29 -100 65 -210 l66 -200 39 0 c42 0 44 3 94 156 9
28 23 60 31 70 16 22 10 33 65 -121 l35 -100 40 0 40 0 67 200 c36 110 67 203
67 208 1 4 -19 7 -43 7 l-44 0 -41 -116 c-23 -63 -41 -123 -41 -132 0 -32 -18
5 -60 126 l-43 123 -35 -3 -35 -3 -45 -128 c-25 -70 -48 -124 -52 -120 -8 8
-10 15 -55 166 l-26 87 -45 0 c-24 0 -44 -4 -44 -10z"/>
<path d="M2780 2430 l0 -210 150 0 c163 0 169 2 156 55 -6 25 -8 25 -106 25
l-100 0 0 45 0 45 95 0 c103 0 104 1 89 58 -6 21 -11 22 -95 22 l-89 0 0 45 0
45 100 0 100 0 0 40 0 40 -150 0 -150 0 0 -210z"/>
<path d="M3280 2429 l0 -211 129 3 c143 4 167 13 204 78 16 26 17 36 8 63 -6
18 -21 43 -33 55 -21 23 -21 25 -5 52 34 58 15 124 -43 153 -27 14 -60 18
-147 18 l-113 0 0 -211z m208 125 c16 -5 22 -14 22 -35 0 -37 -27 -51 -88 -47
-43 3 -47 5 -50 31 -6 47 3 57 50 57 24 0 53 -3 66 -6z m30 -176 c21 -21 14
-54 -13 -66 -37 -17 -125 -16 -125 2 0 7 -3 28 -6 45 l-6 31 69 0 c40 0 74 -5
81 -12z"/>
<path d="M4609 2617 c-24 -13 -57 -43 -74 -66 -27 -39 -30 -50 -30 -121 0 -71
3 -82 30 -121 40 -56 93 -83 175 -87 81 -4 140 24 185 87 24 34 30 54 33 110
4 74 -14 125 -60 168 -61 57 -181 71 -259 30z m200 -103 c32 -35 33 -39 28
-92 -8 -72 -44 -112 -108 -119 -53 -5 -86 11 -116 56 -89 131 89 272 196 155z"/>
<path d="M5100 2430 l0 -211 143 3 142 3 3 38 3 37 -95 0 -96 0 0 170 0 170
-50 0 -50 0 0 -210z"/>
<path d="M5532 2483 c3 -147 5 -160 26 -191 75 -105 251 -95 309 18 21 40 24
62 27 188 l3 142 -54 0 -53 0 0 -149 0 -150 -26 -20 c-35 -28 -77 -26 -111 3
-28 24 -28 24 -31 170 l-3 146 -45 0 -45 0 3 -157z"/>
<path d="M6056 2618 c-14 -54 -10 -58 54 -58 l60 0 0 -170 0 -170 40 0 40 0 0
165 0 165 65 0 65 0 0 45 0 45 -159 0 c-156 0 -159 0 -165 -22z"/>
<path d="M6550 2431 l0 -211 50 0 50 0 -2 208 -3 207 -47 3 -48 3 0 -210z"/>
<path d="M7410 2429 l0 -210 43 3 42 3 5 131 5 131 95 -128 95 -129 43 0 42 0
0 205 0 205 -46 0 -47 0 5 -125 c3 -69 2 -125 -1 -125 -4 0 -49 56 -100 125
l-94 125 -43 0 -44 0 0 -211z"/>
</g>
</svg>
